<?xml version="1.0" standalone="no"?><!DOCTYPE svg PUBLIC "-//W3C//DTD SVG 1.1//EN" "http://www.w3.org/Graphics/SVG/1.1/DTD/svg11.dtd"><svg xmlns="http://www.w3.org/2000/svg" viewBox="0 0 733.72 163.83"><defs><style>.cls-1{fill:none;}.cls-2{fill:#5482AB;}</style></defs><title>AVEVA</title><g id="Layer_2" data-name="Layer 2"><g id="Layer_1_copy" data-name="Layer 1 copy"><polygon class="cls-1" points="88.7 99.61 130.11 99.61 109.41 54.98 88.7 99.61"/><path class="cls-2" d="M706.51,160.57h27.21L660.78,0h-8.16L579.14,160.57h29.39L626,123h63.13Zm-69.7-61L657.52,55l20.7,44.64Z"/><polygon class="cls-2" points="169.82 3.27 199.22 3.27 241.67 108.86 286.3 3.27 313.52 3.27 244.94 163.83 236.77 163.83 169.82 3.27"/><polygon class="cls-2" points="451.23 3.27 480.62 3.27 523.08 108.86 567.71 3.27 594.92 3.27 526.34 163.83 518.18 163.83 451.23 3.27"/><rect class="cls-2" x="336.65" y="2.99" width="92.26" height="25.58"/><rect class="cls-2" x="336.65" y="69.4" width="92.26" height="25.58"/><rect class="cls-2" x="336.65" y="135.26" width="92.26" height="25.58"/><path class="cls-2" d="M158.39,160.57h29.39L114.3,0h-8.16L60.89,99.61H0L18,123h32.3L33.2,160.57H60.42L77.84,123H141Zm-69.69-61L109.4,55l20.71,44.64Z"/><path class="cls-2" d="M689.92,4.94h-3.8V3.13h9.65V4.94H692v9.78h-2Z"/><path class="cls-2" d="M697.24,3.13h2L703,8.52l3.78-5.39h1.93V14.72h-2V9c0-.88,0-1.71,0-2.51l0,0c-.48.74-1,1.46-1.53,2.24l-2.18,3.11L700.76,8.7c-.54-.78-1-1.5-1.53-2.24l0,0c0,.8,0,1.63,0,2.51v5.73h-2Z"/></g></g></svg>