<?xml version="1.0" encoding="utf-8"?>
<!-- Generator: Adobe Illustrator 22.1.0, SVG Export Plug-In . SVG Version: 6.00 Build 0)  -->
<svg version="1.1" id="Layer_1_copy" xmlns="http://www.w3.org/2000/svg" xmlns:xlink="http://www.w3.org/1999/xlink" x="0px"
	 y="0px" viewBox="0 0 761.3 196" style="enable-background:new 0 0 761.3 196;" xml:space="preserve">
<style type="text/css">
	.st0{fill:#FFFFFF;}
</style>
<path class="st0" d="M720,176.5h27.2L674.2,16H666l-73.5,160.6H622l17.4-37.6h63.1L720,176.5z M650.3,115.6L671,70.9l20.7,44.6
	L650.3,115.6L650.3,115.6z"/>
<polygon class="st0" points="183.3,19.2 212.7,19.2 255.1,124.8 299.8,19.2 327,19.2 258.4,179.8 250.2,179.8 "/>
<polygon class="st0" points="464.7,19.2 494.1,19.2 536.5,124.8 581.2,19.2 608.4,19.2 539.8,179.8 531.6,179.8 "/>
<rect x="350.1" y="19" class="st0" width="92.3" height="25.6"/>
<rect x="350.1" y="85.4" class="st0" width="92.3" height="25.6"/>
<rect x="350.1" y="151.2" class="st0" width="92.3" height="25.6"/>
<g>
	<path class="st0" d="M703.4,20.9h-3.8v-1.8h9.7v1.8h-3.8v9.8h-2v-9.8C703.5,20.9,703.4,20.9,703.4,20.9z"/>
	<path class="st0" d="M710.7,19.1h2l3.8,5.4l3.8-5.4h1.9v11.6h-2V25c0-0.9,0-1.7,0-2.5l0,0c-0.5,0.7-1,1.5-1.5,2.2l-2.2,3.1
		l-2.2-3.1c-0.5-0.8-1.1-1.5-1.5-2.2l0,0c0,0.8,0,1.6,0,2.5v5.7h-2L710.7,19.1L710.7,19.1z"/>
</g>
<path class="st0" d="M127.8,16h-8.2l-45.2,99.6H13.5l18,23.4h32.3l-17.1,37.6h27.2L91.3,139h63.1l17.4,37.6h29.4L127.8,16z
	 M102.2,115.6L122.9,71l20.7,44.6H102.2z"/>
</svg>
