<?xml version="1.0" encoding="utf-8"?>
<!-- Generator: Adobe Illustrator 17.0.0, SVG Export Plug-In . SVG Version: 6.00 Build 0)  -->
<!DOCTYPE svg PUBLIC "-//W3C//DTD SVG 1.1//EN" "http://www.w3.org/Graphics/SVG/1.1/DTD/svg11.dtd">
<svg version="1.1" id="Layer_1" xmlns="http://www.w3.org/2000/svg" xmlns:xlink="http://www.w3.org/1999/xlink" viewBox="0 0 600 400" enable-background="new 0 0 600 400" xml:space="preserve">
<g>
	<g>
		<path fill="#414142" d="M122.515,204.113c0,1.392-0.697,2.087-2.092,2.087h-1.738c-1.378,0-2.066-0.695-2.066-2.087v-28.1
			c0-1.376,0.688-2.063,2.066-2.063h1.738c1.395,0,2.092,0.688,2.092,2.063V204.113z"/>
		<linearGradient id="SVGID_1_" gradientUnits="userSpaceOnUse" x1="149.5747" y1="175.3789" x2="149.5747" y2="210.1983">
			<stop  offset="0" style="stop-color:#28A8E0"/>
			<stop  offset="1" style="stop-color:#2A3B8F"/>
		</linearGradient>
		<path fill="url(#SVGID_1_)" d="M169.706,197.513c0,1.494-0.286,2.701-0.856,3.624l0.076-0.176
			c-0.74,1.504-2.247,2.754-4.523,3.747c-2.277,0.996-4.934,1.492-7.975,1.492H131.51c-1.378,0-2.066-0.695-2.066-2.087v-28.1
			c0-1.376,0.688-2.063,2.066-2.063h25.07c1.78,0,3.208,0.102,4.283,0.304c1.696,0.268,3.074,0.629,4.131,1.081
			c1.444,0.605,2.553,1.411,3.326,2.417c0.923,1.193,1.385,2.668,1.385,4.43V197.513z M163.861,197.473V182.23
			c0-0.738-0.353-1.373-1.058-1.909c-0.555-0.417-1.32-0.778-2.293-1.079c-0.975-0.301-2.343-0.453-4.107-0.453H135.34v22.576
			h20.962c1.915,0,3.518-0.244,4.812-0.728c1.478-0.553,2.368-1.366,2.671-2.436C163.836,198.016,163.861,197.774,163.861,197.473z"
			/>
		<linearGradient id="SVGID_2_" gradientUnits="userSpaceOnUse" x1="195.3233" y1="175.3798" x2="195.3233" y2="210.2109">
			<stop  offset="0" style="stop-color:#28A8E0"/>
			<stop  offset="1" style="stop-color:#2A3B8F"/>
		</linearGradient>
		<path fill="url(#SVGID_2_)" d="M218.043,203.615c0-0.17-0.024-0.316-0.049-0.389l-19.72-27.905
			c-0.243-0.753-0.899-1.263-1.919-1.554c-0.34-0.073-0.826-0.146-1.482-0.194c-0.85,0-1.53,0.122-2.089,0.389
			c-0.534,0.243-1.044,0.704-1.506,1.36l-18.627,28.463c-0.024,0.073-0.049,0.146-0.073,0.219c-0.024,0.097-0.024,0.194-0.024,0.316
			c0,0.34,0.122,0.68,0.34,1.02c0.219,0.34,0.631,0.631,1.214,0.899c0.51,0.194,0.923,0.291,1.287,0.291
			c0.51,0,0.947-0.17,1.311-0.534c0.17-0.146,0.316-0.364,0.486-0.68l0.607-0.899l4.663-6.703l5.319-7.674l7.091-10.37l6.436,9.496
			l0.218,0.316l5.732,8.233h0.024l2.866,4.153l0.51,0.753l1.846,2.696c0.389,0.559,0.777,0.971,1.166,1.239
			c0.413,0.243,0.85,0.389,1.312,0.389c0.631,0,1.311-0.243,2.064-0.704c0.316-0.218,0.583-0.486,0.753-0.826
			c0.194-0.34,0.291-0.826,0.291-1.409C218.091,203.907,218.067,203.785,218.043,203.615z"/>
		<g>
			<linearGradient id="SVGID_3_" gradientUnits="userSpaceOnUse" x1="234.5705" y1="175.3789" x2="234.5705" y2="210.1983">
				<stop  offset="0" style="stop-color:#28A8E0"/>
				<stop  offset="1" style="stop-color:#2A3B8F"/>
			</linearGradient>
			<path fill="url(#SVGID_3_)" d="M252.623,176.687c0,1.402-0.697,2.101-2.092,2.101H237.48v25.327c0,1.39-0.691,2.085-2.075,2.085
				h-1.746c-1.383,0-2.074-0.695-2.074-2.085v-25.327h-12.977c-1.393,0-2.091-0.7-2.091-2.101v-0.659
				c0-1.385,0.697-2.078,2.093-2.078h31.919c1.395,0,2.093,0.693,2.093,2.078V176.687z"/>
			<linearGradient id="SVGID_4_" gradientUnits="userSpaceOnUse" x1="273.5486" y1="175.3798" x2="273.5486" y2="210.2109">
				<stop  offset="0" style="stop-color:#28A8E0"/>
				<stop  offset="1" style="stop-color:#2A3B8F"/>
			</linearGradient>
			<path fill="url(#SVGID_4_)" d="M285.509,197.714l5.222,7.602c0.389,0.559,0.777,0.971,1.19,1.239
				c0.388,0.243,0.826,0.389,1.311,0.389c0.607,0,1.287-0.243,2.04-0.704c0.316-0.218,0.583-0.486,0.753-0.826
				c0.194-0.34,0.291-0.826,0.291-1.409c0-0.097-0.024-0.219-0.024-0.389c-0.024-0.17-0.049-0.316-0.049-0.389l-19.744-27.905
				c-0.243-0.753-0.874-1.263-1.894-1.554c-0.34-0.073-0.85-0.146-1.506-0.194c-0.826,0-1.53,0.122-2.064,0.389
				c-0.559,0.243-1.069,0.704-1.53,1.36l-18.628,28.463c-0.024,0.073-0.048,0.146-0.073,0.219c-0.024,0.097-0.024,0.194-0.024,0.316
				c0,0.34,0.121,0.68,0.34,1.02c0.218,0.34,0.631,0.631,1.214,0.899c0.51,0.194,0.923,0.291,1.287,0.291
				c0.51,0,0.971-0.17,1.336-0.534c0.146-0.146,0.292-0.364,0.461-0.68l2.963-4.299l2.283-3.303l5.343-7.674l7.091-10.37
				l8.962,13.212h-0.049"/>
			<path fill="#414142" d="M340.781,202.776c0,1.494-0.387,2.509-1.159,3.048c-0.554,0.387-1.469,0.579-2.745,0.579
				c-0.487,0-1.084-0.251-1.789-0.757c-0.218-0.166-0.521-0.42-0.907-0.754l-27.488-23.382v22.626c0,1.395-0.697,2.092-2.092,2.092
				h-1.738c-1.378,0-2.066-0.697-2.066-2.092v-26.933v-1.16c0-0.403,0.134-0.764,0.402-1.084c0.269-0.318,0.638-0.612,1.109-0.88
				c0.218-0.135,0.461-0.237,0.729-0.304c0.269-0.066,0.529-0.1,0.78-0.1c0.806,0,1.704,0.285,2.694,0.859
				c0.319,0.185,0.73,0.472,1.234,0.859l27.14,23.086V175.99c0-1.376,0.696-2.063,2.091-2.063h1.714
				c1.395,0,2.091,0.688,2.091,2.066V202.776z"/>
			<path fill="#414142" d="M386.788,197.549c0,2.699-1.134,4.779-3.401,6.238c-2.502,1.61-6.358,2.414-11.564,2.414h-9.172
				c-3.863,0-6.988-0.467-9.373-1.409c-2.015-0.787-3.493-1.902-4.434-3.344c-0.755-1.157-1.134-2.45-1.134-3.875v-14.866
				c0-3.138,1.469-5.434,4.409-6.894c2.486-1.24,5.987-1.862,10.507-1.862h9.197c5.526,0,9.43,0.707,11.716,2.113
				c2.165,1.342,3.249,3.558,3.249,6.643V197.549z M380.892,197.421v-14.564c0-1.456-0.74-2.497-2.217-3.126
				c-1.478-0.626-3.719-0.942-6.726-0.942H362.6c-2.923,0-5.115,0.301-6.577,0.904c-1.613,0.671-2.418,1.724-2.418,3.164v14.564
				c0,1.44,0.78,2.471,2.343,3.09c1.427,0.569,3.644,0.854,6.651,0.854h9.372c2.891,0,5.049-0.277,6.477-0.83
				C380.079,199.899,380.892,198.86,380.892,197.421z"/>
			<path fill="#414142" d="M448.013,204.135c0,1.395-0.688,2.092-2.066,2.092h-1.765c-1.376,0-2.066-0.697-2.066-2.092v-20.89
				l-17.361,21.419c-0.453,0.555-1.003,0.98-1.648,1.274c-0.647,0.294-1.34,0.441-2.078,0.441c-0.723,0-1.414-0.145-2.078-0.429
				c-0.664-0.287-1.229-0.716-1.701-1.288l-17.69-21.509v20.982c0,1.395-0.697,2.092-2.089,2.092h-1.738
				c-1.378,0-2.066-0.697-2.066-2.092v-27.132c0-0.84,0.339-1.558,1.02-2.156c0.681-0.598,1.499-0.896,2.457-0.896
				c0.569,0,1.136,0.133,1.701,0.398c0.562,0.263,1.077,0.678,1.549,1.24l20.683,24.464l20.209-24.514
				c0.368-0.455,0.868-0.816,1.499-1.084c0.629-0.268,1.288-0.403,1.978-0.403c0.939,0,1.696,0.244,2.267,0.73
				c0.655,0.555,0.982,1.385,0.982,2.495V204.135z"/>
			<path fill="#414142" d="M460.787,204.113c0,1.392-0.697,2.087-2.089,2.087h-1.738c-1.378,0-2.068-0.695-2.068-2.087v-28.1
				c0-1.376,0.69-2.063,2.068-2.063h1.738c1.392,0,2.089,0.688,2.089,2.063V204.113z"/>
			<path fill="#414142" d="M504.879,176.687c0,1.402-0.697,2.101-2.092,2.101h-20.961c-1.765,0-3.055,0.064-3.868,0.19
				c-0.816,0.126-1.608,0.429-2.381,0.915c-0.925,0.586-1.385,1.231-1.385,1.933v15.947c0,0.802,0.263,1.451,0.792,1.945
				c0.529,0.493,1.39,0.908,2.583,1.243c0.538,0.135,1.21,0.235,2.016,0.301c0.806,0.069,1.831,0.102,3.074,0.102h20.005
				c1.378,0,2.066,0.697,2.066,2.089v0.657c0,1.395-0.688,2.089-2.066,2.089h-20.005c-1.395,0-2.545-0.024-3.451-0.074
				c-0.908-0.052-1.705-0.126-2.395-0.228c-1.409-0.235-2.839-0.754-4.283-1.558c-1.444-0.806-2.493-1.653-3.147-2.542
				c-0.723-1.006-1.084-2.315-1.084-3.925v-16.049c0-1.793,0.79-3.396,2.367-4.805c1.58-1.406,3.612-2.329,6.098-2.765
				c0.723-0.102,1.454-0.175,2.191-0.228c0.74-0.05,1.665-0.076,2.772-0.076h21.063c1.395,0,2.092,0.693,2.092,2.078V176.687z"/>
			<path fill="#414142" d="M547.635,198.225c0,1.779-0.304,3.161-0.906,4.153c-0.757,1.257-2.101,2.189-4.032,2.791
				c-2.184,0.688-5.251,1.032-9.197,1.032h-20.382c-1.378,0-2.066-0.695-2.066-2.089v-0.657c0-1.392,0.688-2.089,2.066-2.089H533.5
				c3.074,0,5.282-0.318,6.626-0.956c1.074-0.503,1.613-1.198,1.613-2.085v-2.789c0-1.155-0.681-1.985-2.04-2.488
				c-1.361-0.503-3.403-0.754-6.124-0.754h-7.786c-5.071,0-8.842-0.678-11.311-2.037c-2.336-1.293-3.503-3.178-3.503-5.661v-2.417
				c0-2.716,0.958-4.713,2.872-5.986c2.234-1.494,6.022-2.241,11.363-2.241h2.998c1.395,0,2.092,0.693,2.092,2.078v0.659
				c0,1.402-0.697,2.101-2.092,2.101h-3.074c-2.585,0-4.561,0.242-5.92,0.726c-1.563,0.553-2.343,1.428-2.343,2.63v2.229
				c0,1.119,0.683,1.895,2.054,2.331c1.368,0.434,3.624,0.65,6.764,0.65h7.886c4.435,0,7.886,0.721,10.355,2.165
				c2.469,1.442,3.705,3.38,3.705,5.811V198.225z"/>
			<g>
				<path fill="#414142" d="M128.741,226.226c-0.557,1.029-1.376,1.826-2.458,2.39c-1.082,0.563-2.38,0.845-3.895,0.845h-4.352
					v-13.697h4.352c1.515,0,2.814,0.275,3.895,0.825c1.082,0.551,1.901,1.341,2.458,2.37c0.557,1.03,0.835,2.245,0.835,3.643
					C129.576,223.989,129.297,225.196,128.741,226.226z M126.351,226.488c0.946-0.919,1.418-2.215,1.418-3.885
					s-0.47-2.97-1.409-3.896c-0.939-0.926-2.309-1.389-4.109-1.389h-2.448v10.549h2.448
					C124.039,227.867,125.405,227.408,126.351,226.488z"/>
				<path fill="#414142" d="M145.818,226.294h-6.023l-1.146,3.166h-1.904l5.071-13.445h2.001l5.052,13.445h-1.904L145.818,226.294z
					 M145.314,224.914l-2.507-6.916l-2.506,6.916H145.314z"/>
				<path fill="#414142" d="M164.878,215.764v1.437h-3.866v12.26h-1.768V217.2h-3.866v-1.437H164.878z"/>
				<path fill="#414142" d="M180.479,226.294h-6.023l-1.146,3.166h-1.904l5.071-13.445h2.001l5.052,13.445h-1.904L180.479,226.294z
					 M179.974,224.914l-2.507-6.916l-2.506,6.916H179.974z"/>
				<path fill="#414142" d="M212.478,226.226c-0.557,1.029-1.376,1.826-2.458,2.39c-1.082,0.563-2.38,0.845-3.895,0.845h-4.352
					v-13.697h4.352c1.515,0,2.814,0.275,3.895,0.825c1.082,0.551,1.9,1.341,2.458,2.37c0.557,1.03,0.835,2.245,0.835,3.643
					C213.314,223.989,213.035,225.196,212.478,226.226z M210.088,226.488c0.946-0.919,1.418-2.215,1.418-3.885
					s-0.47-2.97-1.409-3.896c-0.939-0.926-2.309-1.389-4.109-1.389h-2.448v10.549h2.448
					C207.776,227.867,209.143,227.408,210.088,226.488z"/>
				<path fill="#414142" d="M228.798,229.461l-3.575-5.595H223.3v5.595h-1.768v-13.697h4.507c1.554,0,2.72,0.372,3.498,1.117
					c0.777,0.745,1.166,1.733,1.166,2.964c0,1.114-0.311,2.011-0.933,2.691c-0.622,0.68-1.522,1.104-2.7,1.272l3.73,5.654H228.798z
					 M223.3,222.583h2.584c2.008,0,3.011-0.881,3.011-2.642c0-1.761-1.004-2.642-3.011-2.642H223.3V222.583z"/>
				<path fill="#414142" d="M240.456,215.764v13.697h-1.768v-13.697H240.456z"/>
				<path fill="#414142" d="M250.014,215.764l4.177,11.735l4.236-11.735h1.924l-5.032,13.697h-2.234l-5.012-13.697H250.014z"/>
				<path fill="#414142" d="M269.735,217.2v4.683h5.207v1.36h-5.207v4.78h5.79v1.438h-7.558v-13.697h7.558v1.437H269.735z"/>
				<path fill="#414142" d="M291.825,227.711c-0.311,0.557-0.784,1.011-1.418,1.361c-0.635,0.349-1.418,0.524-2.351,0.524
					c-0.907,0-1.714-0.165-2.419-0.495c-0.706-0.331-1.27-0.784-1.69-1.36c-0.421-0.577-0.664-1.234-0.728-1.973h1.885
					c0.039,0.389,0.172,0.767,0.398,1.137c0.227,0.369,0.551,0.674,0.971,0.913c0.421,0.24,0.929,0.359,1.525,0.359
					c0.777,0,1.373-0.207,1.788-0.621c0.414-0.415,0.622-0.946,0.622-1.594c0-0.557-0.146-1.011-0.437-1.36
					c-0.292-0.35-0.65-0.625-1.078-0.826s-1.01-0.417-1.749-0.651c-0.868-0.284-1.564-0.553-2.089-0.807
					c-0.524-0.252-0.971-0.631-1.34-1.136c-0.369-0.505-0.554-1.172-0.554-2.001c0-0.712,0.172-1.34,0.515-1.884
					c0.343-0.544,0.835-0.965,1.477-1.263c0.641-0.298,1.396-0.447,2.264-0.447c1.347,0,2.416,0.328,3.206,0.981
					c0.79,0.655,1.25,1.486,1.379,2.497h-1.904c-0.104-0.544-0.382-1.023-0.835-1.438c-0.453-0.414-1.068-0.621-1.845-0.621
					c-0.713,0-1.282,0.184-1.71,0.553c-0.427,0.37-0.641,0.891-0.641,1.565c0,0.531,0.139,0.961,0.418,1.292
					c0.279,0.331,0.625,0.589,1.039,0.777c0.415,0.188,0.984,0.399,1.71,0.631c0.881,0.285,1.59,0.557,2.128,0.817
					c0.537,0.259,0.994,0.651,1.37,1.175c0.375,0.524,0.563,1.221,0.563,2.088C292.291,226.553,292.136,227.155,291.825,227.711z"/>
				<path fill="#414142" d="M321.765,229.461h-1.768l-7.112-10.822v10.822h-1.768v-13.697h1.768l7.112,10.841v-10.841h1.768V229.461
					z"/>
				<path fill="#414142" d="M332.197,217.2v4.683h5.207v1.36h-5.207v4.78h5.79v1.438h-7.558v-13.697h7.558v1.437H332.197z"/>
				<path fill="#414142" d="M353.724,229.461l-3.438-5.42l-3.128,5.42h-2.04l4.177-6.975l-4.255-6.722h2.118l3.361,5.323
					l3.148-5.323h2.04l-4.197,6.858l4.313,6.839H353.724z"/>
				<path fill="#414142" d="M371.852,215.764v1.437h-3.866v12.26h-1.769V217.2h-3.866v-1.437H371.852z"/>
				<path fill="#414142" d="M391.824,217.2v4.683h5.207v1.36h-5.207v4.78h5.79v1.438h-7.558v-13.697h7.558v1.437H391.824z"/>
				<path fill="#414142" d="M415.915,216.861c1.088,0.823,1.839,1.947,2.254,3.371h-1.865c-0.349-0.906-0.913-1.629-1.69-2.166
					c-0.777-0.538-1.728-0.807-2.855-0.807c-0.894,0-1.693,0.217-2.4,0.651c-0.706,0.434-1.263,1.056-1.671,1.865
					c-0.408,0.81-0.612,1.758-0.612,2.846c0,1.075,0.204,2.014,0.612,2.817c0.408,0.802,0.965,1.422,1.671,1.855
					c0.707,0.434,1.506,0.651,2.4,0.651c1.127,0,2.079-0.269,2.855-0.807c0.778-0.538,1.341-1.26,1.69-2.166h1.865
					c-0.415,1.425-1.166,2.548-2.254,3.37c-1.088,0.823-2.467,1.234-4.138,1.234c-1.282,0-2.417-0.295-3.4-0.884
					c-0.985-0.589-1.752-1.411-2.302-2.467c-0.551-1.056-0.826-2.257-0.826-3.604c0-1.361,0.275-2.571,0.826-3.633
					c0.55-1.062,1.317-1.888,2.302-2.477c0.984-0.589,2.118-0.884,3.4-0.884C413.448,215.628,414.828,216.039,415.915,216.861z"/>
				<path fill="#414142" d="M436.073,216.483c1.017,0.595,1.817,1.428,2.4,2.496c0.582,1.069,0.874,2.276,0.874,3.624
					s-0.292,2.555-0.874,3.624c-0.583,1.068-1.383,1.901-2.4,2.496c-1.017,0.596-2.16,0.894-3.429,0.894
					c-1.269,0-2.419-0.298-3.449-0.894c-1.029-0.595-1.836-1.428-2.419-2.496c-0.583-1.069-0.875-2.276-0.875-3.624
					s0.292-2.555,0.875-3.624c0.583-1.068,1.39-1.9,2.419-2.496c1.03-0.596,2.18-0.894,3.449-0.894
					C433.913,215.588,435.056,215.886,436.073,216.483z M430.109,217.891c-0.746,0.434-1.328,1.056-1.749,1.865
					c-0.421,0.81-0.631,1.758-0.631,2.846c0,1.075,0.21,2.021,0.631,2.837c0.421,0.816,1.003,1.441,1.749,1.875
					c0.745,0.434,1.589,0.651,2.535,0.651c0.932,0,1.771-0.22,2.516-0.661c0.745-0.44,1.327-1.065,1.748-1.875
					c0.421-0.809,0.631-1.751,0.631-2.827c0-1.088-0.21-2.036-0.631-2.846c-0.421-0.81-1.003-1.432-1.748-1.865
					c-0.746-0.434-1.584-0.651-2.516-0.651C431.698,217.24,430.854,217.457,430.109,217.891z"/>
				<path fill="#414142" d="M458.212,229.461h-1.768l-7.112-10.822v10.822h-1.768v-13.697h1.768l7.112,10.841v-10.841h1.768V229.461
					z"/>
				<path fill="#414142" d="M476.581,216.483c1.017,0.595,1.817,1.428,2.4,2.496c0.582,1.069,0.874,2.276,0.874,3.624
					s-0.292,2.555-0.874,3.624c-0.583,1.068-1.383,1.901-2.4,2.496c-1.017,0.596-2.16,0.894-3.429,0.894
					c-1.269,0-2.419-0.298-3.449-0.894c-1.029-0.595-1.836-1.428-2.419-2.496c-0.583-1.069-0.875-2.276-0.875-3.624
					s0.292-2.555,0.875-3.624c0.583-1.068,1.39-1.9,2.419-2.496c1.03-0.596,2.18-0.894,3.449-0.894
					C474.421,215.588,475.564,215.886,476.581,216.483z M470.617,217.891c-0.746,0.434-1.328,1.056-1.749,1.865
					c-0.421,0.81-0.631,1.758-0.631,2.846c0,1.075,0.21,2.021,0.631,2.837c0.421,0.816,1.003,1.441,1.749,1.875
					c0.745,0.434,1.589,0.651,2.535,0.651c0.932,0,1.771-0.22,2.516-0.661c0.745-0.44,1.327-1.065,1.748-1.875
					c0.421-0.809,0.631-1.751,0.631-2.827c0-1.088-0.21-2.036-0.631-2.846c-0.421-0.81-1.003-1.432-1.748-1.865
					c-0.746-0.434-1.584-0.651-2.516-0.651C472.206,217.24,471.362,217.457,470.617,217.891z"/>
				<path fill="#414142" d="M501.789,215.996v13.464h-1.768v-10.744l-4.294,10.744h-1.573l-4.314-10.706v10.706h-1.768v-13.464
					h2.118l4.78,11.307l4.701-11.307H501.789z"/>
				<path fill="#414142" d="M512.223,215.764v13.697h-1.768v-13.697H512.223z"/>
				<path fill="#414142" d="M531.088,216.861c1.088,0.823,1.839,1.947,2.254,3.371h-1.865c-0.349-0.906-0.913-1.629-1.69-2.166
					c-0.777-0.538-1.728-0.807-2.855-0.807c-0.894,0-1.693,0.217-2.4,0.651c-0.706,0.434-1.263,1.056-1.671,1.865
					s-0.612,1.758-0.612,2.846c0,1.075,0.204,2.014,0.612,2.817c0.408,0.802,0.965,1.422,1.671,1.855
					c0.707,0.434,1.506,0.651,2.4,0.651c1.127,0,2.079-0.269,2.855-0.807c0.778-0.538,1.341-1.26,1.69-2.166h1.865
					c-0.415,1.425-1.166,2.548-2.254,3.37c-1.088,0.823-2.467,1.234-4.138,1.234c-1.282,0-2.417-0.295-3.4-0.884
					c-0.985-0.589-1.752-1.411-2.302-2.467c-0.551-1.056-0.826-2.257-0.826-3.604c0-1.361,0.275-2.571,0.826-3.633
					c0.55-1.062,1.317-1.888,2.302-2.477c0.984-0.589,2.118-0.884,3.4-0.884C528.621,215.628,530,216.039,531.088,216.861z"/>
				<path fill="#414142" d="M549.74,227.711c-0.31,0.557-0.784,1.011-1.417,1.361c-0.636,0.349-1.418,0.524-2.352,0.524
					c-0.906,0-1.713-0.165-2.419-0.495c-0.706-0.331-1.269-0.784-1.69-1.36c-0.421-0.577-0.663-1.234-0.728-1.973h1.884
					c0.039,0.389,0.172,0.767,0.399,1.137c0.227,0.369,0.55,0.674,0.971,0.913c0.421,0.24,0.929,0.359,1.526,0.359
					c0.777,0,1.372-0.207,1.787-0.621c0.414-0.415,0.622-0.946,0.622-1.594c0-0.557-0.146-1.011-0.438-1.36
					c-0.292-0.35-0.651-0.625-1.079-0.826c-0.427-0.201-1.009-0.417-1.748-0.651c-0.868-0.284-1.565-0.553-2.089-0.807
					c-0.524-0.252-0.971-0.631-1.34-1.136c-0.37-0.505-0.554-1.172-0.554-2.001c0-0.712,0.172-1.34,0.515-1.884
					s0.835-0.965,1.477-1.263c0.641-0.298,1.395-0.447,2.263-0.447c1.346,0,2.416,0.328,3.206,0.981
					c0.79,0.655,1.249,1.486,1.379,2.497h-1.904c-0.104-0.544-0.382-1.023-0.835-1.438c-0.454-0.414-1.069-0.621-1.846-0.621
					c-0.713,0-1.282,0.184-1.71,0.553c-0.427,0.37-0.641,0.891-0.641,1.565c0,0.531,0.139,0.961,0.417,1.292
					s0.625,0.589,1.039,0.777c0.415,0.188,0.985,0.399,1.71,0.631c0.881,0.285,1.589,0.557,2.127,0.817
					c0.538,0.259,0.994,0.651,1.37,1.175s0.563,1.221,0.563,2.088C550.206,226.553,550.051,227.155,549.74,227.711z"/>
			</g>
		</g>
	</g>
	<g>
		<linearGradient id="SVGID_5_" gradientUnits="userSpaceOnUse" x1="87.101" y1="152.4867" x2="49.755" y2="209.7183">
			<stop  offset="0" style="stop-color:#28A8E0"/>
			<stop  offset="1" style="stop-color:#2A3B8F"/>
		</linearGradient>
		<path fill="url(#SVGID_5_)" d="M49.998,208.432c0-2.344,0.002-4.688-0.001-7.032c-0.007-4.328-0.029-8.658,0.006-12.987
			c0.043-5.291-1.377-11.195,2.658-15.466c1.318-1.395,2.911-2.444,4.613-3.316l37.346-24.978v27.161c0,0-0.485,6.305-9.458,11.398
			C85.161,183.211,57.273,195.579,49.998,208.432z"/>
		<path fill="#414142" d="M93.406,234.603v-7.295l-2.91-1.824l-0.795-2.852l-7.411-4.899l0.233-8.43l-16.073-10.03l-7.178,4.782
			c-11.165,5.248-5.587,13.221-5.587,13.221c5.471,8.439,37.501,27.588,37.501,27.588l0.34-3.647l-1.368-0.456l0.456-8.323
			L93.406,234.603z M75.344,226.174l-4.792-3.191v-4.656l4.792,3.288V226.174z M77.847,217.395l-8.429-5.015v-8.43l8.429,5.122
			V217.395z M85.025,235.175l-5.471-3.531v-6.276l5.471,4.103V235.175z"/>
		<polygon fill="#414142" points="95.97,221.498 95.97,227.88 101.668,231.413 101.668,226.171 		"/>
		<polygon fill="#414142" points="94.619,236.452 94.619,241.671 99.731,244.862 99.731,239.961 		"/>
		<polygon fill="#414142" points="98.021,247.825 98.021,252.156 102.466,255.347 102.466,251.586 		"/>
	</g>
</g>
</svg>
